<!DOCTYPE svg PUBLIC "-//W3C//DTD SVG 1.1//EN" "http://www.w3.org/Graphics/SVG/1.1/DTD/svg11.dtd">
<!-- Uploaded to: SVG Repo, www.svgrepo.com, Transformed by: SVG Repo Mixer Tools -->
<svg fill="#ffffff" height="800px" width="800px" version="1.1" id="Layer_1" xmlns="http://www.w3.org/2000/svg" xmlns:xlink="http://www.w3.org/1999/xlink" viewBox="-102.4 -102.4 716.80 716.80" xml:space="preserve" stroke="#ffffff">
<g id="SVGRepo_bgCarrier" stroke-width="0"/>
<g id="SVGRepo_tracerCarrier" stroke-linecap="round" stroke-linejoin="round"/>
<g id="SVGRepo_iconCarrier"> <g> <g> <g> <path d="M500.093,133.953h-92.279V107.46c0-54.329-44.201-98.53-98.53-98.53H202.716c-54.329,0-98.53,44.201-98.53,98.53v26.493 H11.907C5.331,133.953,0,139.284,0,145.86v308.986c0,26.591,21.633,48.223,48.223,48.223h415.553 c26.591,0,48.223-21.633,48.223-48.223V145.86C512,139.284,506.669,133.953,500.093,133.953z M128,107.46 c0-41.199,33.517-74.716,74.716-74.716h106.567c41.199,0,74.716,33.517,74.716,74.716v26.493h-23.814V107.46 c0-28.067-22.835-50.902-50.902-50.902H202.716c-28.067,0-50.902,22.835-50.902,50.902v26.493H128V107.46z M336.372,107.46 v26.493H175.628V107.46c0-14.936,12.152-27.088,27.088-27.088h106.567C324.22,80.372,336.372,92.524,336.372,107.46z M481.087,157.767l-70.14,144.664c-4.831,9.965-12.864,17.843-22.482,22.672v-7.634c0-13.706-11.15-24.856-24.856-24.856h-27.684 c-13.706,0-24.856,11.15-24.856,24.856v12.949H200.93V317.47c0-13.706-11.15-24.856-24.856-24.856h-27.684 c-13.706,0-24.856,11.15-24.856,24.856v7.634c-9.618-4.829-17.651-12.707-22.482-22.672l-70.14-144.664H481.087z M364.651,317.47 v57.451c0,0.574-0.468,1.042-1.042,1.042h-27.684c-0.574,0-1.042-0.468-1.042-1.042V317.47c0-0.574,0.468-1.042,1.042-1.042 h27.684C364.183,316.428,364.651,316.896,364.651,317.47z M177.116,317.47v57.451c0,0.574-0.468,1.042-1.042,1.042h-27.684 c-0.574,0-1.042-0.468-1.042-1.042V317.47c0-0.574,0.468-1.042,1.042-1.042h27.684 C176.648,316.428,177.116,316.896,177.116,317.47z M488.186,454.846c0,13.46-10.95,24.409-24.409,24.409H48.223 c-13.46,0-24.409-10.95-24.409-24.409V197.711L79.626,312.82c8.87,18.294,25.013,31.871,43.909,37.923v24.177 c0,13.706,11.15,24.856,24.856,24.856h27.684c13.706,0,24.856-11.15,24.856-24.856v-20.687h110.14v20.688 c0,13.706,11.15,24.856,24.856,24.856h27.684c13.706,0,24.856-11.15,24.856-24.856v-24.177 c18.898-6.051,35.041-19.629,43.909-37.923l55.812-115.111V454.846z"/> <path d="M427.46,443.535c0,6.576,5.331,11.907,11.907,11.907h12.502c6.576,0,11.907-5.331,11.907-11.907 c0-6.576-5.331-11.907-11.907-11.907h-12.502C432.791,431.628,427.46,436.959,427.46,443.535z"/> <path d="M306.508,431.628H283.45c-6.576,0-11.907,5.331-11.907,11.907c0,6.576,5.331,11.907,11.907,11.907h23.058 c6.576,0,11.907-5.331,11.907-11.907C318.415,436.959,313.084,431.628,306.508,431.628z"/> <path d="M384.467,431.628h-23.058c-6.576,0-11.907,5.331-11.907,11.907c0,6.576,5.331,11.907,11.907,11.907h23.058 c6.576,0,11.907-5.331,11.907-11.907C396.374,436.959,391.043,431.628,384.467,431.628z"/> <path d="M228.55,431.628h-23.058c-6.576,0-11.907,5.331-11.907,11.907c0,6.576,5.331,11.907,11.907,11.907h23.058 c6.576,0,11.907-5.331,11.907-11.907C240.457,436.959,235.126,431.628,228.55,431.628z"/> <path d="M150.591,431.628h-23.058c-6.576,0-11.907,5.331-11.907,11.907c0,6.576,5.331,11.907,11.907,11.907h23.058 c6.576,0,11.907-5.331,11.907-11.907C162.498,436.959,157.167,431.628,150.591,431.628z"/> <path d="M72.633,431.628H60.13c-6.576,0-11.907,5.331-11.907,11.907c0,6.576,5.331,11.907,11.907,11.907h12.502 c6.576,0,11.907-5.331,11.907-11.907C84.54,436.959,79.209,431.628,72.633,431.628z"/> <path d="M111.926,193.488c0-6.576-5.331-11.907-11.907-11.907H87.516c-6.576,0-11.907,5.331-11.907,11.907 c0,6.576,5.331,11.907,11.907,11.907h12.502C106.595,205.395,111.926,200.065,111.926,193.488z"/> <path d="M327.763,205.395h24.909c6.576,0,11.907-5.331,11.907-11.907c0-6.576-5.331-11.907-11.907-11.907h-24.909 c-6.576,0-11.907,5.331-11.907,11.907C315.856,200.065,321.187,205.395,327.763,205.395z"/> <path d="M243.545,205.395h24.909c6.576,0,11.907-5.331,11.907-11.907c0-6.576-5.331-11.907-11.907-11.907h-24.909 c-6.576,0-11.907,5.331-11.907,11.907C231.638,200.065,236.969,205.395,243.545,205.395z"/> <path d="M159.327,205.395h24.909c6.576,0,11.907-5.331,11.907-11.907c0-6.576-5.331-11.907-11.907-11.907h-24.909 c-6.576,0-11.907,5.331-11.907,11.907C147.42,200.065,152.751,205.395,159.327,205.395z"/> <path d="M411.981,205.395h12.502c6.576,0,11.907-5.331,11.907-11.907c0-6.576-5.331-11.907-11.907-11.907h-12.502 c-6.576,0-11.907,5.331-11.907,11.907C400.074,200.065,405.405,205.395,411.981,205.395z"/> </g> </g> </g> </g>
</svg>